<?xml version="1.0" standalone="no"?><!DOCTYPE svg PUBLIC "-//W3C//DTD SVG 1.1//EN" "http://www.w3.org/Graphics/SVG/1.1/DTD/svg11.dtd"><svg t="1768216905238" class="icon" viewBox="0 0 1025 1024" version="1.1" xmlns="http://www.w3.org/2000/svg" p-id="20401" xmlns:xlink="http://www.w3.org/1999/xlink" width="200.1953125" height="200"><path d="M541.59872 674.0736c5.12 43.52 14.848 105.984 124.416 105.984 43.52 0 54.784 11.264 58.368 14.848 15.872 25.088 23.04 54.784 19.456 83.968v7.168h-455.168v-20.992c-5.12-43.008 25.088-81.92 68.096-87.552 7.168-1.024 14.336-1.024 21.504 0.512 63.488 0 93.184-42.496 105.984-106.496l-40.448-11.264c-1.024 34.304-29.696 60.928-64 59.904h-1.536c-74.24-7.168-140.288 47.616-147.456 121.856-0.512 7.68-1.024 15.36 0 23.04v79.36h570.88v-65.024c0-123.392-51.712-156.672-136.192-156.672-71.68 0-83.456-28.672-84.48-60.928l-39.424 12.288z" fill="#2c2c2c" p-id="20402"></path><path d="M816.54272 363.2896c-66.048-180.224-197.632-306.688-299.52-265.728-124.416-56.32-236.032 110.592-307.712 274.944s112.64 269.312 228.864 302.592c53.248 14.336 109.056 13.824 161.792-0.512 118.784-29.696 282.624-131.072 216.576-311.296z m-294.912 304.64c-53.248-6.656-101.376-36.864-130.048-82.432-18.432-36.864-26.624-77.824-24.064-118.784a294.8608 294.8608 0 0 0 152.064-116.736c3.584 22.528-36.864 83.456-59.392 125.952 115.2-32.768 171.52-97.792 185.856-131.072 34.816 43.52 45.568 161.792 3.584 242.176-28.16 44.544-75.264 74.752-128 80.896z" fill="#2c2c2c" p-id="20403"></path></svg>